<svg width="100" height="24" viewBox="0 0 100 24" fill="none" xmlns="http://www.w3.org/2000/svg">
<path d="M7.904 1.672C8.864 1.672 9.68 1.808 10.352 2.08C11.024 2.352 11.68 2.736 12.32 3.232C12.496 3.376 12.648 3.448 12.776 3.448C13.096 3.448 13.304 2.968 13.4 2.008H13.952C13.888 3.048 13.856 4.888 13.856 7.528H13.304C13.128 6.488 12.968 5.744 12.824 5.296C12.68 4.832 12.44 4.392 12.104 3.976C11.624 3.352 11.008 2.888 10.256 2.584C9.52 2.264 8.72 2.104 7.856 2.104C6.816 2.104 5.904 2.448 5.12 3.136C4.352 3.824 3.752 4.808 3.32 6.088C2.888 7.352 2.672 8.84 2.672 10.552C2.672 12.296 2.904 13.792 3.368 15.04C3.832 16.288 4.472 17.24 5.288 17.896C6.12 18.536 7.056 18.856 8.096 18.856C8.896 18.856 9.672 18.704 10.424 18.4C11.176 18.096 11.768 17.64 12.2 17.032C12.52 16.584 12.752 16.104 12.896 15.592C13.04 15.08 13.176 14.296 13.304 13.24H13.856C13.856 15.992 13.888 17.912 13.952 19H13.4C13.352 18.488 13.28 18.128 13.184 17.92C13.104 17.696 12.984 17.584 12.824 17.584C12.696 17.584 12.528 17.648 12.32 17.776C11.6 18.288 10.912 18.68 10.256 18.952C9.6 19.208 8.808 19.336 7.88 19.336C6.36 19.336 5.024 18.992 3.872 18.304C2.736 17.616 1.848 16.624 1.208 15.328C0.584 14.016 0.272 12.456 0.272 10.648C0.272 8.888 0.592 7.328 1.232 5.968C1.888 4.608 2.792 3.552 3.944 2.8C5.112 2.048 6.432 1.672 7.904 1.672ZM22.0034 6.304C23.6354 6.304 24.9474 6.848 25.9394 7.936C26.9474 9.008 27.4514 10.64 27.4514 12.832C27.4514 15.024 26.9474 16.656 25.9394 17.728C24.9474 18.8 23.6354 19.336 22.0034 19.336C20.3714 19.336 19.0514 18.8 18.0434 17.728C17.0514 16.656 16.5554 15.024 16.5554 12.832C16.5554 10.64 17.0514 9.008 18.0434 7.936C19.0514 6.848 20.3714 6.304 22.0034 6.304ZM22.0034 6.784C21.0434 6.784 20.2834 7.28 19.7234 8.272C19.1634 9.248 18.8834 10.768 18.8834 12.832C18.8834 14.896 19.1634 16.416 19.7234 17.392C20.2834 18.368 21.0434 18.856 22.0034 18.856C22.9634 18.856 23.7234 18.368 24.2834 17.392C24.8434 16.416 25.1234 14.896 25.1234 12.832C25.1234 10.768 24.8434 9.248 24.2834 8.272C23.7234 7.28 22.9634 6.784 22.0034 6.784ZM36.6399 6.304C37.2799 6.304 37.7999 6.488 38.1999 6.856C38.6159 7.224 38.8239 7.672 38.8239 8.2C38.8239 8.616 38.6959 8.976 38.4399 9.28C38.1999 9.568 37.8719 9.712 37.4559 9.712C37.1039 9.712 36.7999 9.6 36.5439 9.376C36.3039 9.152 36.1839 8.848 36.1839 8.464C36.1839 7.936 36.4559 7.504 36.9999 7.168C36.8879 7.008 36.7199 6.928 36.4959 6.928C35.8719 6.928 35.3039 7.176 34.7919 7.672C34.2799 8.152 33.8799 8.744 33.5919 9.448C33.3039 10.152 33.1599 10.816 33.1599 11.44V16.528C33.1599 17.264 33.3679 17.776 33.7839 18.064C34.2159 18.352 34.8559 18.496 35.7039 18.496V19L35.1279 18.976C33.4959 18.928 32.4559 18.904 32.0079 18.904C31.5919 18.904 30.6479 18.936 29.1759 19V18.496C29.8479 18.496 30.3199 18.376 30.5919 18.136C30.8639 17.88 30.9999 17.424 30.9999 16.768V9.256C30.9999 8.52 30.8639 7.984 30.5919 7.648C30.3199 7.312 29.8479 7.144 29.1759 7.144V6.64C29.6879 6.688 30.1839 6.712 30.6639 6.712C31.6719 6.712 32.5039 6.6 33.1599 6.376V9.376C33.4479 8.576 33.9039 7.864 34.5279 7.24C35.1679 6.616 35.8719 6.304 36.6399 6.304ZM50.2186 16.384C50.2186 17.12 50.3546 17.656 50.6266 17.992C50.8986 18.328 51.3706 18.496 52.0426 18.496V19C51.5466 18.952 51.0506 18.928 50.5546 18.928C49.5466 18.928 48.7146 19.04 48.0586 19.264V17.128C47.7706 17.848 47.3386 18.4 46.7626 18.784C46.1866 19.152 45.4826 19.336 44.6506 19.336C43.1146 19.336 41.9066 18.784 41.0266 17.68C40.1626 16.576 39.7386 14.96 39.7546 12.832C39.7546 11.44 39.9946 10.256 40.4746 9.28C40.9706 8.288 41.6266 7.544 42.4426 7.048C43.2746 6.552 44.1866 6.304 45.1786 6.304C45.7866 6.304 46.3386 6.424 46.8346 6.664C47.3466 6.888 47.7546 7.24 48.0586 7.72V3.064C48.0586 2.328 47.9226 1.792 47.6506 1.456C47.3786 1.12 46.9066 0.951999 46.2346 0.951999V0.447999C46.7466 0.495999 47.2426 0.519999 47.7226 0.519999C48.7306 0.519999 49.5626 0.407999 50.2186 0.183999V16.384ZM45.3466 18.616C45.9706 18.616 46.5306 18.376 47.0266 17.896C47.5226 17.416 47.8666 16.736 48.0586 15.856V8.704C47.6266 7.472 46.7306 6.856 45.3706 6.856C44.3786 6.856 43.5786 7.368 42.9706 8.392C42.3626 9.4 42.0666 10.88 42.0826 12.832C42.0666 14.752 42.3386 16.2 42.8986 17.176C43.4586 18.136 44.2746 18.616 45.3466 18.616ZM63.5639 16.12C63.2759 17 62.7319 17.76 61.9319 18.4C61.1479 19.024 60.1959 19.336 59.0759 19.336C57.9399 19.336 56.9559 19.08 56.1239 18.568C55.2919 18.04 54.6519 17.312 54.2039 16.384C53.7719 15.44 53.5559 14.352 53.5559 13.12C53.5559 11.728 53.7799 10.52 54.2279 9.496C54.6759 8.472 55.3079 7.688 56.1239 7.144C56.9399 6.584 57.8919 6.304 58.9799 6.304C60.4199 6.304 61.5239 6.744 62.2919 7.624C63.0759 8.488 63.4679 9.808 63.4679 11.584H55.9559C55.9079 12.032 55.8839 12.544 55.8839 13.12C55.8839 14.176 56.0519 15.096 56.3879 15.88C56.7399 16.664 57.1959 17.272 57.7559 17.704C58.3319 18.12 58.9319 18.328 59.5559 18.328C60.3239 18.328 61.0039 18.144 61.5959 17.776C62.1879 17.408 62.6839 16.792 63.0839 15.928L63.5639 16.12ZM58.8839 6.76C58.1319 6.76 57.4839 7.128 56.9399 7.864C56.3959 8.6 56.0599 9.688 55.9319 11.128H61.1639C61.1959 9.88 61.0119 8.84 60.6119 8.008C60.2279 7.176 59.6519 6.76 58.8839 6.76ZM72.6566 6.304C73.2966 6.304 73.8166 6.488 74.2166 6.856C74.6326 7.224 74.8406 7.672 74.8406 8.2C74.8406 8.616 74.7126 8.976 74.4566 9.28C74.2166 9.568 73.8886 9.712 73.4726 9.712C73.1206 9.712 72.8166 9.6 72.5606 9.376C72.3206 9.152 72.2006 8.848 72.2006 8.464C72.2006 7.936 72.4726 7.504 73.0166 7.168C72.9046 7.008 72.7366 6.928 72.5126 6.928C71.8886 6.928 71.3206 7.176 70.8086 7.672C70.2966 8.152 69.8966 8.744 69.6086 9.448C69.3206 10.152 69.1766 10.816 69.1766 11.44V16.528C69.1766 17.264 69.3846 17.776 69.8006 18.064C70.2326 18.352 70.8726 18.496 71.7206 18.496V19L71.1446 18.976C69.5126 18.928 68.4726 18.904 68.0246 18.904C67.6086 18.904 66.6646 18.936 65.1926 19V18.496C65.8646 18.496 66.3366 18.376 66.6086 18.136C66.8806 17.88 67.0166 17.424 67.0166 16.768V9.256C67.0166 8.52 66.8806 7.984 66.6086 7.648C66.3366 7.312 65.8646 7.144 65.1926 7.144V6.64C65.7046 6.688 66.2006 6.712 66.6806 6.712C67.6886 6.712 68.5206 6.6 69.1766 6.376V9.376C69.4646 8.576 69.9206 7.864 70.5446 7.24C71.1846 6.616 71.8886 6.304 72.6566 6.304ZM81.1953 6.304C82.8273 6.304 84.1393 6.848 85.1313 7.936C86.1393 9.008 86.6433 10.64 86.6433 12.832C86.6433 15.024 86.1393 16.656 85.1313 17.728C84.1393 18.8 82.8273 19.336 81.1953 19.336C79.5633 19.336 78.2433 18.8 77.2353 17.728C76.2433 16.656 75.7473 15.024 75.7473 12.832C75.7473 10.64 76.2433 9.008 77.2353 7.936C78.2433 6.848 79.5633 6.304 81.1953 6.304ZM81.1953 6.784C80.2353 6.784 79.4753 7.28 78.9153 8.272C78.3553 9.248 78.0753 10.768 78.0753 12.832C78.0753 14.896 78.3553 16.416 78.9153 17.392C79.4753 18.368 80.2353 18.856 81.1953 18.856C82.1553 18.856 82.9153 18.368 83.4753 17.392C84.0353 16.416 84.3153 14.896 84.3153 12.832C84.3153 10.768 84.0353 9.248 83.4753 8.272C82.9153 7.28 82.1553 6.784 81.1953 6.784ZM97.4928 6.712C98.1968 6.712 98.8048 6.688 99.3168 6.64V7.12C98.9968 7.152 98.7088 7.296 98.4528 7.552C98.2128 7.808 97.9808 8.224 97.7568 8.8L93.8208 19.12L93.0048 21.208C92.7008 21.992 92.3568 22.552 91.9728 22.888C91.7328 23.112 91.4448 23.272 91.1088 23.368C90.7728 23.464 90.4368 23.512 90.1008 23.512C89.6208 23.512 89.2288 23.384 88.9248 23.128C88.6208 22.872 88.4688 22.52 88.4688 22.072C88.4688 21.688 88.5808 21.376 88.8048 21.136C89.0288 20.912 89.3408 20.8 89.7408 20.8C90.0928 20.8 90.3808 20.896 90.6048 21.088C90.8448 21.296 90.9648 21.576 90.9648 21.928C90.9648 22.408 90.7488 22.768 90.3168 23.008C90.3488 23.024 90.3968 23.032 90.4608 23.032C91.3408 23.032 92.0208 22.408 92.5008 21.16L93.3408 18.976L88.9968 8.488C88.7248 7.944 88.4528 7.584 88.1808 7.408C87.9088 7.232 87.6368 7.144 87.3648 7.144V6.64C88.0528 6.736 88.8368 6.784 89.7168 6.784C90.5168 6.784 91.5568 6.736 92.8368 6.64V7.144C92.2608 7.144 91.8368 7.192 91.5648 7.288C91.3088 7.384 91.1808 7.616 91.1808 7.984C91.1808 8.32 91.2768 8.712 91.4688 9.16L94.3488 16.312L97.0128 9.376C97.1888 8.896 97.2768 8.528 97.2768 8.272C97.2768 7.904 97.1328 7.632 96.8448 7.456C96.5568 7.28 96.1008 7.168 95.4768 7.12V6.64C96.3248 6.688 96.9968 6.712 97.4928 6.712Z" fill="black"/>
</svg>
