<svg id="visual" viewBox="0 0 900 600" width="900" height="600" xmlns="http://www.w3.org/2000/svg" xmlns:xlink="http://www.w3.org/1999/xlink" version="1.1"><path d="M0 517L21.5 513.5C43 510 86 503 128.8 501.7C171.7 500.3 214.3 504.7 257.2 502.7C300 500.7 343 492.3 385.8 486.5C428.7 480.7 471.3 477.3 514.2 477.7C557 478 600 482 642.8 489.8C685.7 497.7 728.3 509.3 771.2 508.2C814 507 857 493 878.5 486L900 479L900 601L878.5 601C857 601 814 601 771.2 601C728.3 601 685.7 601 642.8 601C600 601 557 601 514.2 601C471.3 601 428.7 601 385.8 601C343 601 300 601 257.2 601C214.3 601 171.7 601 128.8 601C86 601 43 601 21.5 601L0 601Z" fill="#ec96aa"></path><path d="M0 485L21.5 483.5C43 482 86 479 128.8 483.8C171.7 488.7 214.3 501.3 257.2 505.3C300 509.3 343 504.7 385.8 509.5C428.7 514.3 471.3 528.7 514.2 525.2C557 521.7 600 500.3 642.8 489.8C685.7 479.3 728.3 479.7 771.2 482.7C814 485.7 857 491.3 878.5 494.2L900 497L900 601L878.5 601C857 601 814 601 771.2 601C728.3 601 685.7 601 642.8 601C600 601 557 601 514.2 601C471.3 601 428.7 601 385.8 601C343 601 300 601 257.2 601C214.3 601 171.7 601 128.8 601C86 601 43 601 21.5 601L0 601Z" fill="#ec7f96"></path><path d="M0 530L21.5 533.3C43 536.7 86 543.3 128.8 540C171.7 536.7 214.3 523.3 257.2 521.7C300 520 343 530 385.8 536C428.7 542 471.3 544 514.2 541.5C557 539 600 532 642.8 530.2C685.7 528.3 728.3 531.7 771.2 537.2C814 542.7 857 550.3 878.5 554.2L900 558L900 601L878.5 601C857 601 814 601 771.2 601C728.3 601 685.7 601 642.8 601C600 601 557 601 514.2 601C471.3 601 428.7 601 385.8 601C343 601 300 601 257.2 601C214.3 601 171.7 601 128.8 601C86 601 43 601 21.5 601L0 601Z" fill="#ea6781"></path><path d="M0 548L21.5 545C43 542 86 536 128.8 535.2C171.7 534.3 214.3 538.7 257.2 541.8C300 545 343 547 385.8 545.8C428.7 544.7 471.3 540.3 514.2 542C557 543.7 600 551.3 642.8 555.8C685.7 560.3 728.3 561.7 771.2 557.7C814 553.7 857 544.3 878.5 539.7L900 535L900 601L878.5 601C857 601 814 601 771.2 601C728.3 601 685.7 601 642.8 601C600 601 557 601 514.2 601C471.3 601 428.7 601 385.8 601C343 601 300 601 257.2 601C214.3 601 171.7 601 128.8 601C86 601 43 601 21.5 601L0 601Z" fill="#e74c6b"></path><path d="M0 552L21.5 557.2C43 562.3 86 572.7 128.8 578C171.7 583.3 214.3 583.7 257.2 583.5C300 583.3 343 582.7 385.8 580.5C428.7 578.3 471.3 574.7 514.2 574.2C557 573.7 600 576.3 642.8 573.7C685.7 571 728.3 563 771.2 558.2C814 553.3 857 551.7 878.5 550.8L900 550L900 601L878.5 601C857 601 814 601 771.2 601C728.3 601 685.7 601 642.8 601C600 601 557 601 514.2 601C471.3 601 428.7 601 385.8 601C343 601 300 601 257.2 601C214.3 601 171.7 601 128.8 601C86 601 43 601 21.5 601L0 601Z" fill="#e22854"></path></svg>